<svg data-v-423bf9ae="" xmlns="http://www.w3.org/2000/svg" viewBox="0 0 450 90" class="iconLeft"><!----><!----><!----><g data-v-423bf9ae="" id="f29d4c92-d66e-4c28-9f82-1ada859dcda6" fill="#022239" transform="matrix(6.116208284037474,0,0,6.116208284037474,101.37613909956752,-4.449542036284377)"><path d="M1.41 12.84L1.41 4.03L6.76 4.03L6.76 4.98L2.52 4.98L2.52 7.91L6.47 7.91L6.47 8.86L2.52 8.86L2.52 12.84L1.41 12.84ZM8.75 12.84L8.75 3.30L9.86 3.30L9.86 12.84L8.75 12.84ZM14.98 12.10L14.98 12.10L14.98 12.10Q16.37 12.10 16.56 10.88L16.56 10.88L17.70 10.88L17.70 10.88Q17.54 11.89 16.81 12.44L16.81 12.44L16.81 12.44Q16.07 12.99 14.98 12.99L14.98 12.99L14.98 12.99Q13.64 12.99 12.80 12.03L12.80 12.03L12.80 12.03Q11.96 11.07 11.96 9.48L11.96 9.48L11.96 9.48Q11.96 7.88 12.80 6.93L12.80 6.93L12.80 6.93Q13.65 5.98 15.06 5.98L15.06 5.98L15.06 5.98Q16.46 5.98 17.16 7.07L17.16 7.07L17.16 7.07Q17.85 8.16 17.64 9.73L17.64 9.73L13.06 9.73L13.06 9.73Q13.06 10.77 13.57 11.43L13.57 11.43L13.57 11.43Q14.07 12.10 14.98 12.10ZM15.79 7.03L15.79 7.03L15.79 7.03Q15.47 6.86 15.01 6.86L15.01 6.86L15.01 6.86Q14.15 6.86 13.66 7.44L13.66 7.44L13.66 7.44Q13.16 8.02 13.08 8.89L13.08 8.89L16.65 8.89L16.65 8.89Q16.65 7.49 15.79 7.03ZM22.71 9.49L25.26 12.84L23.91 12.84L21.99 10.30L20.17 12.84L18.83 12.84L21.36 9.49L18.83 6.13L20.17 6.13L22.09 8.65L23.93 6.13L25.27 6.13L22.71 9.49ZM27.12 12.84L27.12 6.13L28.22 6.13L28.22 12.84L27.12 12.84ZM27.66 4.56L27.66 4.56L27.66 4.56Q27.33 4.56 27.14 4.38L27.14 4.38L27.14 4.38Q26.95 4.19 26.95 3.87L26.95 3.87L26.95 3.87Q26.95 3.56 27.14 3.37L27.14 3.37L27.14 3.37Q27.33 3.18 27.66 3.18L27.66 3.18L27.66 3.18Q28 3.18 28.20 3.37L28.20 3.37L28.20 3.37Q28.41 3.56 28.41 3.87L28.41 3.87L28.41 3.87Q28.41 4.19 28.20 4.38L28.20 4.38L28.20 4.38Q28 4.56 27.66 4.56ZM34.05 4.03L34.05 4.03Q35.50 4.03 36.27 4.77L36.27 4.77L36.27 4.77Q37.03 5.50 37.03 6.75L37.03 6.75L37.03 6.75Q37.03 7.99 36.27 8.71L36.27 8.71L36.27 8.71Q35.50 9.44 34.05 9.44L34.05 9.44L32.31 9.44L32.31 12.84L31.21 12.84L31.21 4.03L34.05 4.03ZM32.31 8.48L34.05 8.48L34.05 8.48Q34.96 8.48 35.43 8.02L35.43 8.02L35.43 8.02Q35.90 7.56 35.90 6.76L35.90 6.76L35.90 6.76Q35.90 5.95 35.43 5.47L35.43 5.47L35.43 5.47Q34.96 4.98 34.05 4.98L34.05 4.98L32.31 4.98L32.31 8.48ZM38.99 4.03L40.57 4.03L43.54 10.00L46.48 4.03L48.03 4.03L48.03 12.84L46.93 12.84L46.93 5.60L43.90 11.73L43.16 11.73L40.10 5.50L40.10 12.84L38.99 12.84L38.99 4.03ZM56.63 6.17L55.55 6.17L55.55 6.17Q55.31 4.89 53.66 4.89L53.66 4.89L53.66 4.89Q52.78 4.89 52.30 5.27L52.30 5.27L52.30 5.27Q51.83 5.66 51.83 6.20L51.83 6.20L51.83 6.20Q51.83 6.73 52.12 7.01L52.12 7.01L52.12 7.01Q52.42 7.29 53.07 7.50L53.07 7.50L54.91 8.13L54.91 8.13Q55.85 8.46 56.40 9.02L56.40 9.02L56.40 9.02Q56.95 9.58 56.95 10.59L56.95 10.59L56.95 10.59Q56.95 11.61 56.08 12.30L56.08 12.30L56.08 12.30Q55.22 12.99 53.76 12.99L53.76 12.99L53.76 12.99Q52.30 12.99 51.37 12.26L51.37 12.26L51.37 12.26Q50.44 11.52 50.41 10.19L50.41 10.19L51.49 10.19L51.49 10.19Q51.49 11.06 52.10 11.52L52.10 11.52L52.10 11.52Q52.71 11.98 53.67 11.98L53.67 11.98L53.67 11.98Q54.63 11.98 55.19 11.56L55.19 11.56L55.19 11.56Q55.75 11.13 55.75 10.55L55.75 10.55L55.75 10.55Q55.75 9.97 55.41 9.63L55.41 9.63L55.41 9.63Q55.06 9.30 54.39 9.07L54.39 9.07L52.84 8.50L52.84 8.50Q51.74 8.13 51.18 7.63L51.18 7.63L51.18 7.63Q50.62 7.13 50.62 6.15L50.62 6.15L50.62 6.15Q50.62 5.18 51.41 4.53L51.41 4.53L51.41 4.53Q52.19 3.88 53.61 3.88L53.61 3.88L53.61 3.88Q55.02 3.88 55.77 4.50L55.77 4.50L55.77 4.50Q56.52 5.12 56.63 6.17L56.63 6.17Z"></path></g><defs data-v-423bf9ae=""><linearGradient data-v-423bf9ae="" gradientTransform="rotate(25)" id="3680022d-4c02-486d-8df7-edf603d0be0f" x1="0%" y1="0%" x2="100%" y2="0%"><stop data-v-423bf9ae="" offset="0%" style="stop-color: rgb(0, 10, 104); stop-opacity: 1;"></stop><stop data-v-423bf9ae="" offset="100%" style="stop-color: rgb(0, 196, 238); stop-opacity: 1;"></stop></linearGradient></defs><g data-v-423bf9ae="" id="c8658562-6d6d-4c79-9b6b-58861342451e" transform="matrix(2.8125,0,0,2.8125,0,0)" stroke="none" fill="url(#3680022d-4c02-486d-8df7-edf603d0be0f)"><path d="M16 32c8.837 0 16-7.163 16-16S24.837 0 16 0 0 7.163 0 16s7.163 16 16 16zM14.817 6.421h2v8.886h8.887v2H14.817V6.421zm-5.959.437h2v14.283h14.283v2H8.858V6.858z"></path></g><!----></svg>